<svg viewBox="0 0 212 212" xmlns="http://www.w3.org/2000/svg"><path d="m195.38 208.74a13.62 13.62 0 0 0 13.75-13.44v-187.41a12.94 12.94 0 0 0 -1.47-6l-4.88 3.11a8.73 8.73 0 0 1 1 4.07v185.17a8.8 8.8 0 0 1 -8.78 8.76h-184.73l-7.39 4.41a14.16 14.16 0 0 0 5.91 1.3z" fill="none"/><path d="m203.79 194.24v-185.18a8.73 8.73 0 0 0 -1-4.07l-14.17 8.9-10.9 21.65-32 28.91-10.42 50.2-9.13 4 36.21 33.82.07-55.2h-9.63l15-24.73 15.9 24.73h-10.24v81.43h-11.14v-12.23l-46.61-43.32-51.62 22.46-29.78 43.08-24.06 14.31h184.73a8.8 8.8 0 0 0 8.79-8.76z" fill="#007cb0"/><path d="m210.09.4-2.43 1.53a12.94 12.94 0 0 1 1.47 6v187.37a13.62 13.62 0 0 1 -13.75 13.44h-186.59a14.16 14.16 0 0 1 -5.91-1.3l-2.88 1.7a16.9 16.9 0 0 0 8.78 2.46h186.6a16.48 16.48 0 0 0 16.62-16.3v-187.41a15.86 15.86 0 0 0 -1.91-7.49z" fill="#007cb0"/><path d="m120.89 113.7a14 14 0 0 1 -5-11.19v-5.27h10.21l-15.9-24.73-15.57 24.73h9.62l.16 4.48c.72 6.18 2.41 12 6.06 16.53l5.27 4.9 10.42-4.53z" fill="#007cb0"/><g fill="#fff"><path d="m162.34 178.7 11.14-.01v-81.45h10.21l-15.9-24.73-14.98 24.73h9.63l-.07 55.2-36.21-33.82-10.42 4.53 46.61 43.32z"/><path d="m34.75 18.27c7.52 0 11.39 4.5 11.39 12.38v1.54h-7.32v-2c0-3.52-1.4-4.86-3.86-4.86s-3.87 1.34-3.87 4.86c0 10.12 15.12 12 15.12 26.08 0 7.88-3.94 12.38-11.54 12.38s-11.53-4.5-11.53-12.38v-3h7.32v3.52c0 3.51 1.54 4.78 4 4.78s4-1.27 4-4.78c0-10.13-15.12-12-15.12-26.09.01-7.93 3.88-12.43 11.41-12.43z"/><path d="m50 30.65c0-7.88 4.15-12.38 11.74-12.38s11.74 4.5 11.74 12.38v25.59c0 7.88-4.15 12.38-11.74 12.38s-11.74-4.5-11.74-12.38zm7.73 26.09c0 3.51 1.55 4.85 4 4.85s4-1.34 4-4.85v-26.58c0-3.52-1.55-4.86-4-4.86s-4 1.34-4 4.86z"/><path d="m94.66 68.06c-.42-1.27-.7-2-.7-6.05v-7.73c.04-4.58-1.55-6.28-5.06-6.28h-2.68v20h-7.73v-49.17h11.67c8 0 11.46 3.73 11.46 11.33v3.84c0 5.07-1.61 8.37-5.06 10 3.87 1.62 5.13 5.34 5.13 10.48v7.59a14.41 14.41 0 0 0 .85 6zm-8.44-42.19v15.13h3c2.88 0 4.64-1.26 4.64-5.2v-4.87c0-3.52-1.2-5.06-3.94-5.06z"/><path d="m104.51 18.83h23.91v7h-8.09v42.23h-7.73v-42.19h-8.09z"/><path d="m40.72 109.68 5.28-34.95h10.76v49.27h-7.32v-35.34l-5.34 35.34h-7.32l-5.78-34.85v34.85h-6.73v-49.27h10.73z"/><path d="m69.63 107.64-9.78-32.91h8.09l5.91 22.44 5.9-22.44h7.39l-9.78 32.91v16.36h-7.73z"/><path d="m34.75 130.07c7.52 0 11.39 4.5 11.39 12.38v1.55h-7.32v-2c0-3.52-1.4-4.85-3.86-4.85s-3.87 1.33-3.87 4.85c0 10.12 15.12 12 15.12 26.09 0 7.87-3.94 12.37-11.54 12.37s-11.53-4.5-11.53-12.37v-3h7.32v3.52c0 3.52 1.54 4.78 4 4.78s4-1.26 4-4.78c0-10.13-15.12-12-15.12-26.09.01-7.95 3.88-12.45 11.41-12.45z"/><path d="m50.64 130.64h7.73v49.22h-7.73z"/><path d="m75.6 152.44h10.83v15.61c0 7.87-3.94 12.37-11.53 12.37s-11.53-4.5-11.53-12.37v-25.6c0-7.88 3.93-12.38 11.53-12.38s11.53 4.5 11.53 12.38v4.78h-7.31v-5.23c0-3.52-1.55-4.85-4-4.85s-4 1.33-4 4.85v26.58c0 3.52 1.55 4.78 4 4.78s4-1.26 4-4.78v-9.07h-3.52z"/><path d="m98.32 144.21v35.65h-7v-49.22h9.7l8 29.46v-29.46h6.89v49.22h-8z"/></g></svg>