<svg id="Layer_1" data-name="Layer 1" xmlns="http://www.w3.org/2000/svg" viewBox="0 0 212 212"><defs><style>.cls-1{fill:none;}.cls-2{fill:#007cb0;}.cls-3{fill:#fff;}</style></defs><title>Artboard 2</title><path class="cls-1" d="M195.38,208.74a13.62,13.62,0,0,0,13.75-13.44V7.89a12.94,12.94,0,0,0-1.47-6L202.78,5a8.73,8.73,0,0,1,1,4.07V194.24A8.8,8.8,0,0,1,195,203H10.27l-7.39,4.41a14.16,14.16,0,0,0,5.91,1.3Z"/><path class="cls-2" d="M203.79,194.24V9.06a8.73,8.73,0,0,0-1-4.07l-14.17,8.9L177.72,35.54l-32,28.91-10.42,50.2-9.13,4,36.21,33.82.07-55.2h-9.63l15-24.73,15.9,24.73H173.48V178.7H162.34V166.47l-46.61-43.32L64.11,145.61,34.33,188.69,10.27,203H195A8.8,8.8,0,0,0,203.79,194.24Z"/><path class="cls-2" d="M210.09.4l-2.43,1.53a12.94,12.94,0,0,1,1.47,6V195.3a13.62,13.62,0,0,1-13.75,13.44H8.79a14.16,14.16,0,0,1-5.91-1.3L0,209.14a16.9,16.9,0,0,0,8.78,2.46H195.38A16.48,16.48,0,0,0,212,195.3V7.89A15.86,15.86,0,0,0,210.09.4Z"/><path class="cls-2" d="M120.89,113.7a14,14,0,0,1-5-11.19V97.24h10.21l-15.9-24.73L94.63,97.24h9.62l.16,4.48c.72,6.18,2.41,12,6.06,16.53l5.27,4.9,10.42-4.53Z"/><polygon class="cls-3" points="162.34 178.7 173.48 178.69 173.48 97.24 183.69 97.24 167.79 72.51 152.81 97.24 162.44 97.24 162.37 152.44 126.16 118.62 115.74 123.15 162.35 166.47 162.34 178.7"/><path class="cls-3" d="M34.75,18.27c7.52,0,11.39,4.5,11.39,12.38v1.54H38.82v-2c0-3.52-1.4-4.86-3.86-4.86s-3.87,1.34-3.87,4.86c0,10.12,15.12,12,15.12,26.08,0,7.88-3.94,12.38-11.54,12.38s-11.53-4.5-11.53-12.38v-3h7.32v3.52c0,3.51,1.54,4.78,4,4.78s4-1.27,4-4.78c0-10.13-15.12-12-15.12-26.09C23.35,22.77,27.22,18.27,34.75,18.27Z"/><path class="cls-3" d="M50,30.65c0-7.88,4.15-12.38,11.74-12.38s11.74,4.5,11.74,12.38V56.24c0,7.88-4.15,12.38-11.74,12.38S50,64.12,50,56.24Zm7.73,26.09c0,3.51,1.55,4.85,4,4.85s4-1.34,4-4.85V30.16c0-3.52-1.55-4.86-4-4.86s-4,1.34-4,4.86Z"/><path class="cls-3" d="M94.66,68.06c-.42-1.27-.7-2-.7-6.05V54.28C94,49.7,92.41,48,88.9,48H86.22v20H78.49V18.83H90.16c8,0,11.46,3.73,11.46,11.33V34c0,5.07-1.61,8.37-5.06,10,3.87,1.62,5.13,5.34,5.13,10.48v7.59a14.41,14.41,0,0,0,.85,6ZM86.22,25.87V41h3c2.88,0,4.64-1.26,4.64-5.2V30.93c0-3.52-1.2-5.06-3.94-5.06Z"/><path class="cls-3" d="M104.51,18.83h23.91v7h-8.09V68.06H112.6V25.87h-8.09Z"/><path class="cls-3" d="M40.72,109.68,46,74.73H56.76V124H49.44V88.66L44.1,124H36.78L31,89.15V124H24.27V74.73H35Z"/><path class="cls-3" d="M69.63,107.64,59.85,74.73h8.09l5.91,22.44,5.9-22.44h7.39l-9.78,32.91V124H69.63Z"/><path class="cls-3" d="M34.75,130.07c7.52,0,11.39,4.5,11.39,12.38V144H38.82v-2c0-3.52-1.4-4.85-3.86-4.85s-3.87,1.33-3.87,4.85c0,10.12,15.12,12,15.12,26.09,0,7.87-3.94,12.37-11.54,12.37s-11.53-4.5-11.53-12.37v-3h7.32v3.52c0,3.52,1.54,4.78,4,4.78s4-1.26,4-4.78c0-10.13-15.12-12-15.12-26.09C23.35,134.57,27.22,130.07,34.75,130.07Z"/><path class="cls-3" d="M50.64,130.64h7.73v49.22H50.64Z"/><path class="cls-3" d="M75.6,152.44H86.43v15.61c0,7.87-3.94,12.37-11.53,12.37s-11.53-4.5-11.53-12.37v-25.6c0-7.88,3.93-12.38,11.53-12.38s11.53,4.5,11.53,12.38v4.78H79.12V142c0-3.52-1.55-4.85-4-4.85s-4,1.33-4,4.85v26.58c0,3.52,1.55,4.78,4,4.78s4-1.26,4-4.78v-9.07H75.6Z"/><path class="cls-3" d="M98.32,144.21v35.65h-7V130.64h9.7l8,29.46V130.64h6.89v49.22h-8Z"/></svg>