<svg height="95" viewBox="0 0 317 95" width="317" xmlns="http://www.w3.org/2000/svg" xmlns:xlink="http://www.w3.org/1999/xlink"><clipPath id="a"><path d="m314.991 17.342v4.708c-7.177 1.202-13.88 3.999-20.176 7.565-1.529.91-3.221 2.032-4.984 3.39.869.821 1.74 1.695 2.609 2.623 1.559-1.191 3.049-2.179 4.406-2.988 5.582-3.438 11.773-5.563 18.145-6.955v4.734c-5.624 1.059-10.786 3.493-15.774 6.204-1.16.691-2.425 1.527-3.75 2.529 10.036 12.519 13.484 28.307 13.801 44.028h-4.635c.108-14.746-3.796-29.188-12.716-41.022-.887.839-1.78 1.753-2.663 2.751 8.358 11.019 11.08 24.717 11.334 38.271h-4.634c.079-12.224-2.782-24.322-9.696-34.49-7.29 10.55-9.534 21.875-9.695 34.49h-4.637c-.095-13.661 3.298-27.126 11.336-38.271-.883-.998-1.775-1.912-2.664-2.751-9.393 11.686-12.78 26.289-12.715 41.022h-4.636c-.119-15.856 4.164-31.348 13.802-44.028-1.324-1.002-2.591-1.838-3.75-2.529-4.98-2.962-10.129-4.999-15.775-6.204v-4.734c6.527 1.285 12.439 3.559 18.146 6.955 1.356.809 2.85 1.797 4.407 2.988.867-.928 1.74-1.802 2.609-2.623-1.764-1.358-3.455-2.48-4.986-3.39-6.301-3.748-12.885-6.229-20.176-7.565l.002-4.577.199-.092c7.952 1.246 15.378 4.311 22.344 8.249 1.887 1.121 3.994 2.535 6.189 4.282 2.196-1.747 4.303-3.161 6.188-4.282 6.913-4.26 14.622-6.752 22.545-8.288zm-28.733 18.679c-.877.811-1.758 1.681-2.634 2.612.878.821 1.759 1.707 2.634 2.664.875-.957 1.756-1.843 2.633-2.664-.877-.931-1.758-1.801-2.633-2.612z"/></clipPath><clipPath id="b"><path d="m1.06.77h314.834v93.23h-314.834z"/></clipPath><clipPath id="c"><path d="m1.06.77h314.834v93.23h-314.834z"/></clipPath><path d="m280.627 12.868c0-3.461 2.815-6.276 6.276-6.276s6.277 2.815 6.277 6.276-2.816 6.276-6.277 6.276-6.276-2.815-6.276-6.276m-4.316 0c0 5.839 4.752 10.59 10.592 10.59s10.59-4.751 10.59-10.59c0-5.838-4.75-10.59-10.59-10.59s-10.592 4.752-10.592 10.59" fill="#777776"/><g clip-path="url(#a)"><path d="m232.267 29.087 72.545-33.829.336.721-72.545 33.828" fill="#767776"/><path d="m232.603 29.807 72.545-33.828.139.297-72.546 33.829" fill="#777877"/><path d="m232.741 30.105 72.546-33.829.139.297-72.546 33.829" fill="#787977"/><path d="m232.88 30.402 72.546-33.829.138.298-72.546 33.828" fill="#787978"/><path d="m233.018 30.699 72.546-33.828.139.297-72.546 33.828" fill="#797a79"/><path d="m233.157 30.996 72.546-33.828.139.297-72.546 33.829" fill="#7a7b7a"/><path d="m233.296 31.294 72.546-33.829.138.297-72.546 33.829" fill="#7b7c7a"/><path d="m233.434 31.591 72.546-33.829.139.298-72.546 33.828" fill="#7b7c7b"/><path d="m233.573 31.888 72.546-33.828.138.297-72.545 33.828" fill="#7c7d7c"/><path d="m233.712 32.185 72.545-33.828.139.297-72.546 33.829" fill="#7d7e7d"/><path d="m233.85 32.483 72.546-33.829.139.297-72.546 33.829" fill="#7e7f7d"/><path d="m233.989 32.78 72.546-33.829.138.298-72.546 33.828" fill="#7e7f7e"/><path d="m234.127 33.077 72.546-33.828.139.297-72.546 33.828" fill="#7f807f"/><path d="m234.266 33.374 72.546-33.828.138.297-72.545 33.829" fill="#808180"/><path d="m234.405 33.672 72.545-33.829.139.297-72.546 33.829" fill="#818280"/><path d="m234.543 33.969 72.546-33.829.139.298-72.546 33.828" fill="#828382"/><path d="m234.682 34.266 72.546-33.828.138.297-72.545 33.828" fill="#838483"/><path d="m234.821 34.563 72.545-33.828.139.297-72.546 33.829" fill="#848583"/><path d="m234.959 34.861 72.546-33.829.139.297-72.546 33.829" fill="#848584"/><path d="m235.098 35.158 72.546-33.829.138.298-72.546 33.828" fill="#858685"/><path d="m235.236 35.455 72.546-33.828.139.297-72.546 33.829" fill="#868786"/><path d="m235.375 35.753 72.546-33.829.138.297-72.545 33.829" fill="#878886"/><path d="m235.514 36.05 72.545-33.829.139.298-72.546 33.828" fill="#888887"/><path d="m235.652 36.347 72.546-33.828.139.297-72.546 33.828" fill="#898a89"/><path d="m235.791 36.644 72.546-33.828.138.297-72.546 33.829" fill="#8a8b8a"/><path d="m235.929 36.942 72.546-33.829.139.297-72.546 33.829" fill="#8b8c8b"/><path d="m236.068 37.239 72.546-33.829.138.298-72.545 33.828" fill="#8c8d8c"/><path d="m236.207 37.536 72.545-33.828.139.297-72.546 33.828" fill="#8d8e8d"/><path d="m236.345 37.833 72.546-33.828.139.297-72.546 33.829" fill="#8e8f8e"/><path d="m236.484 38.131 72.546-33.829.138.297-72.545 33.829" fill="#8f908f"/><path d="m236.623 38.428 72.545-33.829.139.298-72.546 33.828" fill="#909190"/><path d="m236.761 38.725 72.546-33.828.139.297-72.546 33.828" fill="#919291"/><path d="m236.9 39.022 72.546-33.828.138.297-72.546 33.829" fill="#929392"/><path d="m237.038 39.32 72.546-33.829.139.297-72.546 33.829" fill="#939492"/><path d="m237.177 39.617 72.546-33.829.138.298-72.545 33.828" fill="#949594"/><path d="m237.316 39.914 72.545-33.828.139.297-72.546 33.828" fill="#959695"/><path d="m237.454 40.211 72.546-33.828.139.297-72.546 33.829" fill="#969796"/><path d="m237.593 40.509 72.546-33.829.138.297-72.546 33.829" fill="#979896"/><path d="m237.731 40.806 72.546-33.829.139.298-72.546 33.828" fill="#979897"/><path d="m237.87 41.103 72.546-33.828.138.297-72.545 33.829" fill="#999a99"/><path d="m238.009 41.401 72.545-33.829.139.297-72.546 33.829" fill="#9a9b9a"/><path d="m238.147 41.698 72.546-33.829.139.298-72.546 33.828" fill="#9b9c9a"/><path d="m238.286 41.995 72.546-33.828.138.297-72.545 33.828" fill="#9c9c9b"/><path d="m238.425 42.292 72.545-33.828.139.297-72.546 33.829" fill="#9c9d9c"/><path d="m238.563 42.59 72.546-33.829.139.297-72.546 33.829" fill="#9e9f9e"/><path d="m238.702 42.887 72.546-33.829.138.298-72.546 33.828" fill="#9fa09e"/><path d="m238.84 43.184 72.546-33.828.139.297-72.546 33.828" fill="#a0a09f"/><path d="m238.979 43.481 72.546-33.828.138.297-72.545 33.829" fill="#a0a1a0"/><path d="m239.118 43.779 72.545-33.829.139.297-72.546 33.829" fill="#a2a3a2"/><path d="m239.256 44.076 72.546-33.829.139.298-72.546 33.828" fill="#a3a4a3"/><path d="m239.395 44.373 72.546-33.828.138.297-72.546 33.828" fill="#a4a5a3"/><path d="m239.533 44.67 72.546-33.828.139.297-72.546 33.829" fill="#a5a5a4"/><path d="m239.672 44.968 72.546-33.829.138.297-72.545 33.829" fill="#a5a6a5"/><path d="m239.811 45.265 72.545-33.829.139.298-72.546 33.828" fill="#a7a8a7"/><path d="m239.949 45.562 72.546-33.828.139.297-72.546 33.829" fill="#a8a9a8"/><path d="m240.088 45.86 72.546-33.829.138.297-72.545 33.829" fill="#a9aaa9"/><path d="m240.227 46.157 72.545-33.829.139.298-72.546 33.828" fill="#aaaba9"/><path d="m240.365 46.454 72.546-33.828.139.297-72.546 33.828" fill="#abacab"/><path d="m240.504 46.751 72.546-33.828.138.297-72.546 33.829" fill="#acadac"/><path d="m240.642 47.049 72.546-33.829.139.297-72.546 33.829" fill="#adaead"/><path d="m240.781 47.346 72.546-33.829.138.298-72.545 33.828" fill="#aeafae"/><path d="m240.92 47.643 72.545-33.828.139.297-72.546 33.828" fill="#b0b1af"/><path d="m241.058 47.94 72.546-33.828.139.297-72.546 33.829" fill="#b1b2b0"/><path d="m241.197 48.238 72.546-33.829.138.297-72.546 33.829" fill="#b1b2b1"/><path d="m241.335 48.535 72.546-33.829.139.298-72.546 33.828" fill="#b2b3b2"/><path d="m241.474 48.832 72.546-33.828.138.297-72.545 33.828" fill="#b4b5b4"/><path d="m241.613 49.129 72.545-33.828.139.297-72.546 33.829" fill="#b5b6b5"/><path d="m241.751 49.427 72.546-33.829.139.297-72.546 33.829" fill="#b6b7b5"/><path d="m241.89 49.724 72.546-33.829.138.298-72.545 33.828" fill="#b8b8b7"/><path d="m242.029 50.021 72.545-33.828.139.297-72.546 33.828" fill="#b8b9b8"/><path d="m242.167 50.318 72.546-33.828.139.297-72.546 33.829" fill="#b9bab9"/><path d="m242.306 50.616 72.546-33.829.138.297-72.546 33.829" fill="#babbba"/><path d="m242.444 50.913 72.546-33.829.139.298-72.546 33.828" fill="#bcbdbc"/><path d="m242.583 51.21 72.546-33.828.138.297-72.545 33.829" fill="#bdbebc"/><path d="m242.722 51.508 72.545-33.829.139.297-72.546 33.829" fill="#bebfbd"/><path d="m242.86 51.805 72.546-33.829.139.298-72.546 33.828" fill="#bfbfbe"/><path d="m242.999 52.102 72.546-33.828.138.297-72.546 33.828" fill="#c0c1c0"/><path d="m243.137 52.399 72.546-33.828.139.297-72.546 33.829" fill="#c1c2c1"/><path d="m243.276 52.697 72.546-33.829.138.297-72.545 33.829" fill="#c2c3c2"/><path d="m243.415 52.994 72.545-33.829.139.298-72.546 33.828" fill="#c4c5c4"/><path d="m243.553 53.291 72.546-33.828.139.297-72.546 33.828" fill="#c5c6c5"/><path d="m243.692 53.588 72.546-33.828.138.297-72.545 33.829" fill="#c6c7c6"/><path d="m243.831 53.886 72.545-33.829.139.297-72.546 33.829" fill="#c7c8c6"/><path d="m243.969 54.183 72.546-33.829.139.298-72.546 33.828" fill="#c9cac8"/><path d="m244.108 54.48 72.546-33.828.138.297-72.546 33.828" fill="#c9cac9"/><path d="m244.246 54.777 72.546-33.828.139.297-72.546 33.829" fill="#cacbca"/><path d="m244.385 55.075 72.546-33.829.138.297-72.545 33.829" fill="#cccdcc"/><path d="m244.524 55.372 72.545-33.829.555 1.189-72.546 33.829" fill="#cdcecd"/><path d="m245.078 56.561 72.546-33.829.416.892-72.546 33.829" fill="#cecfce"/><path d="m245.494 57.453 72.546-33.829.416.892-72.546 33.829" fill="#cfd0cf"/><path d="m245.91 58.345 72.546-33.829.277.595-72.546 33.828" fill="#d0d1d0"/><path d="m246.187 58.939 72.546-33.828.416.891-72.546 33.829" fill="#d1d2d1"/><path d="m246.603 59.831 72.546-33.829.277.595-72.546 33.828" fill="#d2d3d1"/><path d="m246.88 60.425 72.546-33.828.416.892-72.546 33.828" fill="#d3d4d2"/><path d="m247.296 61.317 72.546-33.828.277.594-72.546 33.829" fill="#d4d5d3"/><path d="m247.573 61.912 72.546-33.829.277.595-72.546 33.828" fill="#d5d6d4"/><path d="m247.85 62.506 72.546-33.828.277.594-72.545 33.829" fill="#d6d7d5"/><path d="m248.128 63.101 72.545-33.829.278.595-72.546 33.828" fill="#d6d7d6"/><path d="m248.405 63.695 72.546-33.828.277.594-72.546 33.829" fill="#d7d8d7"/><path d="m248.682 64.29 72.546-33.829.277.595-72.546 33.828" fill="#d8d9d8"/><path d="m248.959 64.884 72.546-33.828.277.594-72.545 33.829" fill="#d9dad9"/><path d="m249.237 65.479 72.545-33.829.278.595-72.546 33.828" fill="#dadbda"/><path d="m249.514 66.073 72.546-33.828.277.594-72.546 33.829" fill="#dbdcdb"/><path d="m249.791 66.668 72.546-33.829.277.595-72.546 33.829" fill="#dcdddc"/><path d="m250.068 67.263 72.546-33.829.277.595-72.545 33.828" fill="#dddedd"/><path d="m250.346 67.857 72.545-33.828.278.594-72.546 33.829" fill="#dedfde"/><path d="m250.623 68.452 72.546-33.829.277.595-72.546 33.828" fill="#dfe0df"/><path d="m250.9 69.046 72.546-33.828.277.594-72.546 33.829" fill="#e0e1e0"/><path d="m251.177 69.641 72.546-33.829.139.297-72.546 33.829" fill="#e1e2e1"/><path d="m251.316 69.938 72.546-33.829.277.595-72.546 33.828" fill="#e3e3e2"/><path d="m251.593 70.532 72.546-33.828.277.594-72.546 33.829" fill="#e4e4e3"/><path d="m251.87 71.127 72.546-33.829.416.892-72.546 33.829" fill="#e5e5e4"/><path d="m252.286 72.019 72.546-33.829.139.297-72.546 33.829" fill="#e4e4e3"/><path d="m252.425 72.316 72.546-33.829.138.298-72.546 33.828" fill="#e1e2e1"/><path d="m252.563 72.613 72.546-33.828.139.297-72.546 33.829" fill="#e0e1e0"/><path d="m252.702 72.911 72.546-33.829.138.297-72.545 33.829" fill="#dfe0df"/><path d="m252.841 73.208 72.545-33.829.139.298-72.546 33.828" fill="#dedfde"/><path d="m252.979 73.505 72.546-33.828.139.297-72.546 33.828" fill="#dddedd"/><path d="m253.118 73.802 72.546-33.828.138.297-72.546 33.829" fill="#dbdcdb"/><path d="m253.256 74.1 72.546-33.829.139.297-72.546 33.829" fill="#dadbda"/><path d="m253.395 74.397 72.546-33.829.138.298-72.545 33.828" fill="#d9dad9"/><path d="m253.534 74.694 72.545-33.828.139.297-72.546 33.828" fill="#d7d8d7"/><path d="m253.672 74.991 72.546-33.828.139.297-72.546 33.829" fill="#d6d7d6"/><path d="m253.811 75.289 72.546-33.829.138.297-72.545 33.829" fill="#d6d7d5"/><path d="m253.95 75.586 72.545-33.829.139.298-72.546 33.828" fill="#d5d6d4"/><path d="m254.088 75.883 72.546-33.828.139.297-72.546 33.828" fill="#d3d4d2"/><path d="m254.227 76.18 72.546-33.828.138.297-72.546 33.829" fill="#d2d3d1"/><path d="m254.365 76.478 72.546-33.829.139.297-72.546 33.829" fill="#d1d2d1"/><path d="m254.504 76.775 72.546-33.829.138.298-72.545 33.828" fill="#cfd0cf"/><path d="m254.643 77.072 72.545-33.828.139.297-72.546 33.829" fill="#cecfce"/><path d="m254.781 77.37 72.546-33.829.139.297-72.546 33.829" fill="#cdcecd"/><path d="m254.92 77.667 72.546-33.829.138.297-72.546 33.829" fill="#cbcccb"/><path d="m255.058 77.964 72.546-33.829.139.298-72.546 33.828" fill="#cacbca"/><path d="m255.197 78.261 72.546-33.828.138.297-72.545 33.829" fill="#c9cac9"/><path d="m255.336 78.559 72.545-33.829.139.297-72.546 33.829" fill="#c8c9c7"/><path d="m255.474 78.856 72.546-33.829.139.298-72.546 33.828" fill="#c7c8c6"/><path d="m255.613 79.153 72.546-33.828.138.297-72.545 33.828" fill="#c6c7c6"/><path d="m255.752 79.45 72.545-33.828.139.297-72.546 33.829" fill="#c4c5c4"/><path d="m255.89 79.748 72.546-33.829.139.297-72.546 33.829" fill="#c3c4c3"/><path d="m256.029 80.045 72.546-33.829.138.298-72.546 33.828" fill="#c2c3c2"/><path d="m256.167 80.342 72.546-33.828.139.297-72.546 33.828" fill="#c0c1c0"/><path d="m256.306 80.639 72.546-33.828.138.297-72.545 33.829" fill="#bfc0bf"/><path d="m256.445 80.937 72.545-33.829.139.297-72.546 33.829" fill="#bebfbd"/><path d="m256.583 81.234 72.546-33.829.139.298-72.546 33.828" fill="#bdbebc"/><path d="m256.722 81.531 72.546-33.828.138.297-72.546 33.828" fill="#bcbdbc"/><path d="m256.86 81.828 72.546-33.828.139.297-72.546 33.829" fill="#babbba"/><path d="m256.999 82.126 72.546-33.829.138.297-72.545 33.829" fill="#b9bab9"/><path d="m257.138 82.423 72.545-33.829.139.298-72.546 33.828" fill="#b8b9b8"/><path d="m257.276 82.72 72.546-33.828.139.297-72.546 33.829" fill="#b7b8b6"/><path d="m257.415 83.018 72.546-33.829.138.297-72.545 33.829" fill="#b6b7b5"/><path d="m257.554 83.315 72.545-33.829.139.298-72.546 33.828" fill="#b5b6b5"/><path d="m257.692 83.612 72.546-33.828.139.297-72.546 33.828" fill="#b3b4b3"/><path d="m257.831 83.909 72.546-33.828.138.297-72.546 33.829" fill="#b2b3b2"/><path d="m257.969 84.207 72.546-33.829.139.297-72.546 33.829" fill="#b1b2b0"/><path d="m258.108 84.504 72.546-33.829.138.298-72.545 33.828" fill="#b0b1af"/><path d="m258.247 84.801 72.545-33.828.139.297-72.546 33.828" fill="#afb0af"/><path d="m258.385 85.098 72.546-33.828.139.297-72.546 33.829" fill="#adaead"/><path d="m258.524 85.396 72.546-33.829.138.297-72.546 33.829" fill="#acadac"/><path d="m258.662 85.693 72.546-33.829.139.298-72.546 33.828" fill="#ababaa"/><path d="m258.801 85.99 72.546-33.828.138.297-72.545 33.828" fill="#aaaba9"/><path d="m258.94 86.287 72.545-33.828.139.297-72.546 33.829" fill="#a9aaa9"/><path d="m259.078 86.585 72.546-33.829.139.297-72.546 33.829" fill="#a7a8a7"/><path d="m259.217 86.882 72.546-33.829.138.298-72.545 33.828" fill="#a6a7a6"/><path d="m259.356 87.179 72.545-33.828.139.297-72.546 33.828" fill="#a5a5a4"/><path d="m259.494 87.476 72.546-33.828.139.297-72.546 33.829" fill="#a4a5a3"/><path d="m259.633 87.774 72.546-33.829.138.297-72.546 33.829" fill="#a3a4a3"/><path d="m259.771 88.071 72.546-33.829.139.298-72.546 33.828" fill="#a1a2a1"/><path d="m259.91 88.368 72.546-33.828.138.297-72.545 33.829" fill="#a0a1a0"/><path d="m260.049 88.666 72.545-33.829.139.297-72.546 33.829" fill="#9fa09e"/><path d="m260.187 88.963 72.546-33.829.139.298-72.546 33.828" fill="#9e9f9e"/><path d="m260.326 89.26 72.546-33.828.138.297-72.546 33.828" fill="#9d9e9d"/><path d="m260.464 89.557 72.546-33.828.139.297-72.546 33.829" fill="#9c9c9b"/><path d="m260.603 89.855 72.546-33.829.138.297-72.545 33.829" fill="#9b9c9a"/><path d="m260.742 90.152 72.545-33.829.139.298-72.546 33.828" fill="#999a99"/><path d="m260.88 90.449 72.546-33.828.139.297-72.546 33.828" fill="#989998"/><path d="m261.019 90.746 72.546-33.828.138.297-72.545 33.829" fill="#979897"/><path d="m261.158 91.044 72.545-33.829.139.297-72.546 33.829" fill="#969796"/><path d="m261.296 91.341 72.546-33.829.139.298-72.546 33.828" fill="#959695"/><path d="m261.435 91.638 72.546-33.828.138.297-72.546 33.828" fill="#939493"/><path d="m261.573 91.935 72.546-33.828.139.297-72.546 33.829" fill="#939492"/><path d="m261.712 92.233 72.546-33.829.138.297-72.545 33.829" fill="#929392"/><path d="m261.851 92.53 72.545-33.829.139.298-72.546 33.828" fill="#909190"/><path d="m261.989 92.827 72.546-33.828.139.297-72.546 33.829" fill="#8f908f"/><path d="m262.128 93.125 72.546-33.829.138.297-72.546 33.829" fill="#8e8f8e"/><path d="m262.266 93.422 72.546-33.829.139.297-72.546 33.829" fill="#8d8e8d"/><path d="m262.405 93.719 72.546-33.829.138.298-72.545 33.828" fill="#8b8c8b"/><path d="m262.544 94.016 72.545-33.828.139.297-72.546 33.829" fill="#8a8b8a"/><path d="m262.682 94.314 72.546-33.829.139.297-72.546 33.829" fill="#898a89"/><path d="m262.821 94.611 72.546-33.829.138.298-72.545 33.828" fill="#888887"/><path d="m262.96 94.908 72.545-33.828.139.297-72.546 33.828" fill="#878886"/><path d="m263.098 95.205 72.546-33.828.139.297-72.546 33.829" fill="#858685"/><path d="m263.237 95.503 72.546-33.829.138.297-72.546 33.829" fill="#848584"/><path d="m263.375 95.8 72.546-33.829.139.298-72.546 33.828" fill="#838483"/><path d="m263.514 96.097 72.546-33.828.138.297-72.545 33.828" fill="#828382"/><path d="m263.653 96.394 72.545-33.828.139.297-72.546 33.829" fill="#818281"/><path d="m263.791 96.692 72.546-33.829.139.297-72.546 33.829" fill="#808180"/><path d="m263.93 96.989 72.546-33.829.138.298-72.546 33.828" fill="#7f807f"/><path d="m264.068 97.286 72.546-33.828.139.297-72.546 33.828" fill="#7e7f7d"/><path d="m264.207 97.583 72.546-33.828.139.297-72.546 33.829" fill="#7d7e7d"/><path d="m264.346 97.881 72.546-33.829.138.297-72.546 33.829" fill="#7b7c7b"/><path d="m264.484 98.178 72.546-33.829.139.298-72.546 33.828" fill="#7b7c7a"/><path d="m264.623 98.475 72.546-33.828.138.297-72.545 33.829" fill="#7a7b7a"/><path d="m264.762 98.773 72.545-33.829.139.297-72.546 33.829" fill="#787978"/><path d="m264.9 99.07 72.546-33.829.139.298-72.546 33.828" fill="#787977"/><path d="m265.039 99.367 72.546-33.828 2.772 5.945-72.546 33.828" fill="#767776"/></g><path d="m295.954 83.181.904.889h4.635l-.905-.889z" fill="#9e9f9e"/><path d="m304.633 83.181.903.889h4.636l-.904-.889z" fill="#9e9f9e"/><g clip-path="url(#b)"><path d="m289.227 44.936c.428-.621 2.69-2.778 2.69-2.778l.765 1.006-2.418 2.522c6.158 8.194 11.223 20.502 11.235 38.382l-.006.002-.905-.889c-.086-25.571-11.361-38.245-11.361-38.245" fill="#777776"/><path d="m295.454 39.152c1.324-1.002 2.591-1.838 3.752-2.529 4.976-2.962 10.136-5.001 15.783-6.208l.906.893s-10.5 2.052-19.125 8.438l-.186.137c7.44 9.397 13.573 23.604 13.59 44.187h-.002l-.904-.889s1.059-25.6-13.809-44.022" fill="#777776"/><path d="m315.895 22.937v-4.706l-.904-.889v4.708z" fill="#9e9f9e"/><path d="m315.895 22.937c-15.559 2.469-25.16 10.956-25.16 10.956l-.904-.888c12.83-9.619 25.16-10.955 25.16-10.955" fill="#777776"/></g><path d="m314.991 25.685v4.73l.896.899v-4.74z" fill="#9e9f9e"/><path d="m287.014 49.792c.43.658-9.301 9.018-9.547 34.276l-.904-.887s-1.543-18.163 9.695-34.491" fill="#777776"/><path d="m271.926 83.181.905.889 4.636-.002-.904-.887z" fill="#9e9f9e"/><path d="m263.247 83.181.906.889h4.635l-.905-.889z" fill="#9e9f9e"/><path d="m280.598 42.158.897.875s-13.034 12.112-12.707 41.037l-.905-.889s-2.168-22.795 12.715-41.023" fill="#777776"/><path d="m286.258 36.021s.356.31.858.812l-2.576 2.68-.916-.88z" fill="#777776"/><path d="m257.524 22.05 1.047 1.041s11.328 1.75 23.549 10.461l.566-.547s-9.984-8.277-25.162-10.955" fill="#777776"/><path d="m276.547 39.817.502-.665s-7.89-6.311-19.525-8.733l1.023 1.11s8.428 1.451 18 8.288" fill="#777776"/><path d="m279.424 11.582c0-3.531 2.877-6.408 6.41-6.408 3.536 0 6.411 2.877 6.411 6.408 0 3.536-2.875 6.411-6.411 6.411-3.533 0-6.41-2.875-6.41-6.411zm-4.404 0c0 5.965 4.854 10.818 10.814 10.818 5.963 0 10.815-4.853 10.815-10.818 0-5.962-4.852-10.812-10.815-10.812-5.96 0-10.814 4.85-10.814 10.812" fill="#d8232a"/><path d="m281.288 16.338-.038-.033.004-.008-.041-.07-.035.012c-1.189-1.194-1.929-2.838-1.929-4.657 0-3.628 2.953-6.585 6.585-6.585 2.497 0 4.674 1.396 5.791 3.451l-.017.025.045.047.006-.004.021.049-.158.074-.053-.107c-1.088-1.996-3.205-3.358-5.635-3.358-3.533 0-6.41 2.877-6.41 6.408 0 1.768.719 3.372 1.881 4.532l.102.093zm14.068-9.875.441.916c.547 1.291.852 2.715.852 4.203 0 5.965-4.852 10.818-10.815 10.818-2.609 0-5.003-.93-6.875-2.473l-.73-.666.141-.107-.024-.026.727.664.711.538c1.72 1.193 3.804 1.892 6.05 1.892 5.866 0 10.639-4.772 10.639-10.64 0-1.099-.168-2.16-.478-3.158l-.36-.974-.439-.912.019.029z" fill="#34312e"/><g fill="#777776"><path d="m17.298 62.976h3.392l-.041 4.011.082.084c.704-1.861 2.731-4.676 5.709-4.676.704 0 1.324.125 1.779.291l-.993 3.143c-.331-.082-.827-.207-1.282-.207-1.365 0-3.558 1.117-5.337 4.428l-.165 13.526h-3.309z"/><path d="m41.456 72.821c-5.75.744-8.729 1.821-8.729 5.336 0 2.317 1.407 3.516 3.682 3.516 2.027 0 3.599-1.447 4.881-3.02zm7.032 9.844c-1.158.911-2.4 1.489-3.847 1.489-1.862 0-2.896-1.694-3.061-3.432-1.572 1.943-3.558 3.432-6.206 3.432-3.64 0-5.956-2.481-5.956-5.956 0-5.832 7.529-7.197 12.038-7.363.041-.869.082-1.738.082-2.606 0-1.779-.951-3.103-3.143-3.103-1.614 0-2.938.58-5.958 2.855l-1.365-2.152c4.137-2.687 5.461-3.434 8.439-3.434 3.434 0 5.171 2.028 5.171 5.213 0 3.889-.331 7.489-.331 11.127 0 1.491.207 2.938 1.489 2.938.703 0 1.2-.33 1.738-.703z"/><path d="m51.549 62.976h3.309l-.124 3.308h.082c1.738-2.482 4.551-3.889 6.992-3.889 4.756 0 6.287 2.442 6.287 6.248 0 1.571-.041 3.143-.041 4.715l-.083 10.218h-3.309l.083-9.266c0-1.821.041-3.641.041-5.667 0-2.234-1.489-3.269-3.765-3.269-2.15 0-4.053 1.242-6.163 3.807l-.166 14.395h-3.309z"/><path d="m74.01 79.936c1.158.786 2.771 1.737 4.55 1.737 1.82 0 4.013-.992 4.013-3.309 0-5.131-9.556-2.896-9.556-9.804 0-3.889 3.185-6.165 6.95-6.165 2.316 0 4.467.704 5.998 1.739l-1.531 2.109c-1.2-.662-2.482-1.365-3.93-1.365-2.399 0-4.178.992-4.178 3.433 0 4.426 9.556 2.606 9.556 9.598 0 3.93-3.433 6.245-6.825 6.245-2.4 0-4.592-.827-6.454-2.026z"/><path d="m93.369 78.116c1.447 2.233 3.185 3.309 5.171 3.309 3.64 0 6.163-4.055 6.163-8.149 0-5.586-2.606-8.15-5.46-8.15-2.648 0-4.799 2.068-5.791 3.807zm-3.185-15.14h3.309v2.771h.083c1.075-1.779 3.516-3.352 6.411-3.352 3.516 0 8.274 2.649 8.274 10.756 0 5.543-3.723 11.003-9.018 11.003-2.73 0-4.799-1.239-5.833-2.688h-.083l-.082 12.534h-3.31z"/><path d="m121.042 81.673c3.103 0 6.454-2.69 6.454-8.397 0-5.709-2.772-8.398-6.122-8.398-3.103 0-6.454 2.689-6.454 8.398 0 5.707 2.772 8.397 6.122 8.397zm.373-19.278c6.039 0 9.638 4.137 9.638 10.881 0 5.336-3.516 10.878-10.052 10.878-6.04 0-9.638-4.094-9.638-10.878 0-5.338 3.516-10.881 10.052-10.881"/><path d="m134.569 62.976h3.392l-.041 4.011.082.084c.704-1.861 2.731-4.676 5.709-4.676.704 0 1.324.125 1.779.291l-.993 3.143c-.331-.082-.827-.207-1.282-.207-1.365 0-3.558 1.117-5.337 4.428l-.165 13.526h-3.309z"/><path d="m150.743 62.976.082-7.612h3.31l-.083 7.612h5.626v2.482h-5.668l-.082 8.437c-.042 2.317-.042 3.848-.042 4.883 0 1.696.497 2.647 1.903 2.647 1.117 0 2.524-.703 3.31-1.199l1.075 2.15c-1.365.91-3.351 1.778-5.171 1.778-3.185 0-4.426-1.985-4.426-5.253 0-1.365 0-3.06.041-5.916l.083-7.527h-3.516v-2.482z"/></g><path d="m159.612 62.976h5.568c0-1.2.041-2.606.164-3.971.455-5.047 3.932-6.785 8.647-6.785v2.73h-1.448c-2.771 0-3.972 2.235-4.054 4.717l-.123 3.309h5.625v2.482h-5.502l-.166 18.118h-3.309l.166-18.118h-5.568z" fill="#d8232a"/><path d="m185.159 81.673c3.101 0 6.453-2.69 6.453-8.397 0-5.709-2.772-8.398-6.123-8.398-3.102 0-6.451 2.689-6.451 8.398 0 5.707 2.769 8.397 6.121 8.397zm.371-19.278c6.041 0 9.638 4.137 9.638 10.881 0 5.336-3.515 10.878-10.05 10.878-6.039 0-9.639-4.094-9.639-10.878 0-5.338 3.516-10.881 10.051-10.881" fill="#d8232a"/><path d="m212.708 67.526c-1.282-1.572-2.772-2.4-4.467-2.4-3.061 0-6.205 2.978-6.205 8.769 0 4.633 2.978 7.53 6.164 7.53 1.777 0 3.681-1.324 4.674-2.647l1.695 1.944c-1.985 2.357-4.137 3.432-6.949 3.432-5.129 0-9.141-4.053-9.141-10.878 0-5.668 4.012-10.881 9.637-10.881 2.689 0 5.131 1.366 6.744 3.434z" fill="#d8232a"/><path d="m218.706 62.976h3.308l-.082 9.265c0 1.82-.043 3.641-.043 5.668 0 2.233 1.49 3.268 3.766 3.268 2.15 0 4.053-1.241 6.164-3.807l.164-14.394h3.31l-.166 20.6h-3.308l.123-3.309h-.082c-1.738 2.482-4.551 3.887-6.992 3.887-4.756 0-6.287-2.44-6.287-6.245 0-1.572.041-3.144.041-4.717z" fill="#d8232a"/><g clip-path="url(#c)"><path d="m240.545 79.936c1.159.786 2.772 1.737 4.551 1.737 1.821 0 4.012-.992 4.012-3.309 0-5.131-9.555-2.896-9.555-9.804 0-3.889 3.186-6.165 6.949-6.165 2.317 0 4.469.704 5.998 1.739l-1.529 2.109c-1.201-.662-2.482-1.365-3.931-1.365-2.399 0-4.178.992-4.178 3.433 0 4.426 9.556 2.606 9.556 9.598 0 3.93-3.433 6.245-6.826 6.245-2.398 0-4.592-.827-6.453-2.026z" fill="#d8232a"/><path d="m4.558 62.976.082-7.612h3.31l-.083 7.612h5.626v2.482h-5.668l-.082 8.439c-.042 2.317-.042 3.846-.042 4.881 0 1.696.497 2.647 1.903 2.647 1.117 0 2.523-.703 3.31-1.199l1.075 2.15c-1.365.91-3.351 1.778-5.171 1.778-3.185 0-4.426-1.983-4.426-5.253 0-1.365 0-3.06.041-5.914l.083-7.529h-3.516v-2.482z" fill="#777776"/></g></svg>