<?xml version="1.0" encoding="UTF-8"?><!DOCTYPE svg PUBLIC "-//W3C//DTD SVG 1.1//EN" "http://www.w3.org/Graphics/SVG/1.1/DTD/svg11.dtd"><svg version="1.1" xmlns="http://www.w3.org/2000/svg" xmlns:xlink="http://www.w3.org/1999/xlink" x="0" y="0" width="317" height="95" viewBox="0, 0, 317, 95"><defs><clipPath id="Clip_1"><path d="M314.991,17.342 L314.991,22.05 C307.814,23.252 301.111,26.049 294.815,29.615 C293.286,30.525 291.594,31.647 289.831,33.005 C290.7,33.826 291.571,34.7 292.44,35.628 C293.999,34.437 295.489,33.449 296.846,32.64 C302.428,29.202 308.619,27.077 314.991,25.685 L314.991,30.419 C309.367,31.478 304.205,33.912 299.217,36.623 C298.057,37.314 296.792,38.15 295.467,39.152 C305.503,51.671 308.951,67.459 309.268,83.18 L304.633,83.18 C304.741,68.434 300.837,53.992 291.917,42.158 C291.03,42.997 290.137,43.911 289.254,44.909 C297.612,55.928 300.334,69.626 300.588,83.18 L295.954,83.18 C296.033,70.956 293.172,58.858 286.258,48.69 C278.968,59.24 276.724,70.565 276.563,83.18 L271.926,83.18 C271.831,69.519 275.224,56.054 283.262,44.909 C282.379,43.911 281.487,42.997 280.598,42.158 C271.205,53.844 267.818,68.447 267.883,83.18 L263.247,83.18 C263.128,67.324 267.411,51.832 277.049,39.152 C275.725,38.15 274.458,37.314 273.299,36.623 C268.319,33.661 263.17,31.624 257.524,30.419 L257.524,25.685 C264.051,26.97 269.963,29.244 275.67,32.64 C277.026,33.449 278.52,34.437 280.077,35.628 C280.944,34.7 281.817,33.826 282.686,33.005 C280.922,31.647 279.231,30.525 277.7,29.615 C271.399,25.867 264.815,23.386 257.524,22.05 L257.526,17.473 L257.725,17.381 C265.677,18.627 273.103,21.692 280.069,25.63 C281.956,26.751 284.063,28.165 286.258,29.912 C288.454,28.165 290.561,26.751 292.446,25.63 C299.359,21.37 307.068,18.878 314.991,17.342 z M286.258,36.021 C285.381,36.832 284.5,37.702 283.624,38.633 C284.502,39.454 285.383,40.34 286.258,41.297 C287.133,40.34 288.014,39.454 288.891,38.633 C288.014,37.702 287.133,36.832 286.258,36.021 z"/></clipPath><clipPath id="Clip_2"><path d="M1.06,0.77 L315.894,0.77 L315.894,94 L1.06,94 z"/></clipPath><clipPath id="Clip_3"><path d="M1.06,0.77 L315.894,0.77 L315.894,94 L1.06,94 z"/></clipPath></defs><g id="Layer_1"><path d="M280.627,12.868 C280.627,9.407 283.442,6.592 286.903,6.592 C290.364,6.592 293.18,9.407 293.18,12.868 C293.18,16.329 290.364,19.144 286.903,19.144 C283.442,19.144 280.627,16.329 280.627,12.868 M276.311,12.868 C276.311,18.707 281.063,23.458 286.903,23.458 C292.743,23.458 297.493,18.707 297.493,12.868 C297.493,7.03 292.743,2.278 286.903,2.278 C281.063,2.278 276.311,7.03 276.311,12.868" fill="#777776"/><g clip-path="url(#Clip_1)"><path d="M232.267,29.087 L304.812,-4.742 L305.148,-4.021 L232.603,29.807" fill="#767776"/><path d="M232.603,29.807 L305.148,-4.021 L305.287,-3.724 L232.741,30.105" fill="#777877"/><path d="M232.741,30.105 L305.287,-3.724 L305.426,-3.427 L232.88,30.402" fill="#787977"/><path d="M232.88,30.402 L305.426,-3.427 L305.564,-3.129 L233.018,30.699" fill="#787978"/><path d="M233.018,30.699 L305.564,-3.129 L305.703,-2.832 L233.157,30.996" fill="#797A79"/><path d="M233.157,30.996 L305.703,-2.832 L305.842,-2.535 L233.296,31.294" fill="#7A7B7A"/><path d="M233.296,31.294 L305.842,-2.535 L305.98,-2.238 L233.434,31.591" fill="#7B7C7A"/><path d="M233.434,31.591 L305.98,-2.238 L306.119,-1.94 L233.573,31.888" fill="#7B7C7B"/><path d="M233.573,31.888 L306.119,-1.94 L306.257,-1.643 L233.712,32.185" fill="#7C7D7C"/><path d="M233.712,32.185 L306.257,-1.643 L306.396,-1.346 L233.85,32.483" fill="#7D7E7D"/><path d="M233.85,32.483 L306.396,-1.346 L306.535,-1.049 L233.989,32.78" fill="#7E7F7D"/><path d="M233.989,32.78 L306.535,-1.049 L306.673,-0.751 L234.127,33.077" fill="#7E7F7E"/><path d="M234.127,33.077 L306.673,-0.751 L306.812,-0.454 L234.266,33.374" fill="#7F807F"/><path d="M234.266,33.374 L306.812,-0.454 L306.95,-0.157 L234.405,33.672" fill="#808180"/><path d="M234.405,33.672 L306.95,-0.157 L307.089,0.14 L234.543,33.969" fill="#818280"/><path d="M234.543,33.969 L307.089,0.14 L307.228,0.438 L234.682,34.266" fill="#828382"/><path d="M234.682,34.266 L307.228,0.438 L307.366,0.735 L234.821,34.563" fill="#838483"/><path d="M234.821,34.563 L307.366,0.735 L307.505,1.032 L234.959,34.861" fill="#848583"/><path d="M234.959,34.861 L307.505,1.032 L307.644,1.329 L235.098,35.158" fill="#848584"/><path d="M235.098,35.158 L307.644,1.329 L307.782,1.627 L235.236,35.455" fill="#858685"/><path d="M235.236,35.455 L307.782,1.627 L307.921,1.924 L235.375,35.753" fill="#868786"/><path d="M235.375,35.753 L307.921,1.924 L308.059,2.221 L235.514,36.05" fill="#878886"/><path d="M235.514,36.05 L308.059,2.221 L308.198,2.519 L235.652,36.347" fill="#888887"/><path d="M235.652,36.347 L308.198,2.519 L308.337,2.816 L235.791,36.644" fill="#898A89"/><path d="M235.791,36.644 L308.337,2.816 L308.475,3.113 L235.929,36.942" fill="#8A8B8A"/><path d="M235.929,36.942 L308.475,3.113 L308.614,3.41 L236.068,37.239" fill="#8B8C8B"/><path d="M236.068,37.239 L308.614,3.41 L308.752,3.708 L236.207,37.536" fill="#8C8D8C"/><path d="M236.207,37.536 L308.752,3.708 L308.891,4.005 L236.345,37.833" fill="#8D8E8D"/><path d="M236.345,37.833 L308.891,4.005 L309.03,4.302 L236.484,38.131" fill="#8E8F8E"/><path d="M236.484,38.131 L309.03,4.302 L309.168,4.599 L236.623,38.428" fill="#8F908F"/><path d="M236.623,38.428 L309.168,4.599 L309.307,4.897 L236.761,38.725" fill="#909190"/><path d="M236.761,38.725 L309.307,4.897 L309.446,5.194 L236.9,39.022" fill="#919291"/><path d="M236.9,39.022 L309.446,5.194 L309.584,5.491 L237.038,39.32" fill="#929392"/><path d="M237.038,39.32 L309.584,5.491 L309.723,5.788 L237.177,39.617" fill="#939492"/><path d="M237.177,39.617 L309.723,5.788 L309.861,6.086 L237.316,39.914" fill="#949594"/><path d="M237.316,39.914 L309.861,6.086 L310,6.383 L237.454,40.211" fill="#959695"/><path d="M237.454,40.211 L310,6.383 L310.139,6.68 L237.593,40.509" fill="#969796"/><path d="M237.593,40.509 L310.139,6.68 L310.277,6.977 L237.731,40.806" fill="#979896"/><path d="M237.731,40.806 L310.277,6.977 L310.416,7.275 L237.87,41.103" fill="#979897"/><path d="M237.87,41.103 L310.416,7.275 L310.554,7.572 L238.009,41.401" fill="#999A99"/><path d="M238.009,41.401 L310.554,7.572 L310.693,7.869 L238.147,41.698" fill="#9A9B9A"/><path d="M238.147,41.698 L310.693,7.869 L310.832,8.167 L238.286,41.995" fill="#9B9C9A"/><path d="M238.286,41.995 L310.832,8.167 L310.97,8.464 L238.425,42.292" fill="#9C9C9B"/><path d="M238.425,42.292 L310.97,8.464 L311.109,8.761 L238.563,42.59" fill="#9C9D9C"/><path d="M238.563,42.59 L311.109,8.761 L311.248,9.058 L238.702,42.887" fill="#9E9F9E"/><path d="M238.702,42.887 L311.248,9.058 L311.386,9.356 L238.84,43.184" fill="#9FA09E"/><path d="M238.84,43.184 L311.386,9.356 L311.525,9.653 L238.979,43.481" fill="#A0A09F"/><path d="M238.979,43.481 L311.525,9.653 L311.663,9.95 L239.118,43.779" fill="#A0A1A0"/><path d="M239.118,43.779 L311.663,9.95 L311.802,10.247 L239.256,44.076" fill="#A2A3A2"/><path d="M239.256,44.076 L311.802,10.247 L311.941,10.545 L239.395,44.373" fill="#A3A4A3"/><path d="M239.395,44.373 L311.941,10.545 L312.079,10.842 L239.533,44.67" fill="#A4A5A3"/><path d="M239.533,44.67 L312.079,10.842 L312.218,11.139 L239.672,44.968" fill="#A5A5A4"/><path d="M239.672,44.968 L312.218,11.139 L312.356,11.436 L239.811,45.265" fill="#A5A6A5"/><path d="M239.811,45.265 L312.356,11.436 L312.495,11.734 L239.949,45.562" fill="#A7A8A7"/><path d="M239.949,45.562 L312.495,11.734 L312.634,12.031 L240.088,45.86" fill="#A8A9A8"/><path d="M240.088,45.86 L312.634,12.031 L312.772,12.328 L240.227,46.157" fill="#A9AAA9"/><path d="M240.227,46.157 L312.772,12.328 L312.911,12.626 L240.365,46.454" fill="#AAABA9"/><path d="M240.365,46.454 L312.911,12.626 L313.05,12.923 L240.504,46.751" fill="#ABACAB"/><path d="M240.504,46.751 L313.05,12.923 L313.188,13.22 L240.642,47.049" fill="#ACADAC"/><path d="M240.642,47.049 L313.188,13.22 L313.327,13.517 L240.781,47.346" fill="#ADAEAD"/><path d="M240.781,47.346 L313.327,13.517 L313.465,13.815 L240.92,47.643" fill="#AEAFAE"/><path d="M240.92,47.643 L313.465,13.815 L313.604,14.112 L241.058,47.94" fill="#B0B1AF"/><path d="M241.058,47.94 L313.604,14.112 L313.743,14.409 L241.197,48.238" fill="#B1B2B0"/><path d="M241.197,48.238 L313.743,14.409 L313.881,14.706 L241.335,48.535" fill="#B1B2B1"/><path d="M241.335,48.535 L313.881,14.706 L314.02,15.004 L241.474,48.832" fill="#B2B3B2"/><path d="M241.474,48.832 L314.02,15.004 L314.158,15.301 L241.613,49.129" fill="#B4B5B4"/><path d="M241.613,49.129 L314.158,15.301 L314.297,15.598 L241.751,49.427" fill="#B5B6B5"/><path d="M241.751,49.427 L314.297,15.598 L314.436,15.895 L241.89,49.724" fill="#B6B7B5"/><path d="M241.89,49.724 L314.436,15.895 L314.574,16.193 L242.029,50.021" fill="#B8B8B7"/><path d="M242.029,50.021 L314.574,16.193 L314.713,16.49 L242.167,50.318" fill="#B8B9B8"/><path d="M242.167,50.318 L314.713,16.49 L314.852,16.787 L242.306,50.616" fill="#B9BAB9"/><path d="M242.306,50.616 L314.852,16.787 L314.99,17.084 L242.444,50.913" fill="#BABBBA"/><path d="M242.444,50.913 L314.99,17.084 L315.129,17.382 L242.583,51.21" fill="#BCBDBC"/><path d="M242.583,51.21 L315.129,17.382 L315.267,17.679 L242.722,51.508" fill="#BDBEBC"/><path d="M242.722,51.508 L315.267,17.679 L315.406,17.976 L242.86,51.805" fill="#BEBFBD"/><path d="M242.86,51.805 L315.406,17.976 L315.545,18.274 L242.999,52.102" fill="#BFBFBE"/><path d="M242.999,52.102 L315.545,18.274 L315.683,18.571 L243.137,52.399" fill="#C0C1C0"/><path d="M243.137,52.399 L315.683,18.571 L315.822,18.868 L243.276,52.697" fill="#C1C2C1"/><path d="M243.276,52.697 L315.822,18.868 L315.96,19.165 L243.415,52.994" fill="#C2C3C2"/><path d="M243.415,52.994 L315.96,19.165 L316.099,19.463 L243.553,53.291" fill="#C4C5C4"/><path d="M243.553,53.291 L316.099,19.463 L316.238,19.76 L243.692,53.588" fill="#C5C6C5"/><path d="M243.692,53.588 L316.238,19.76 L316.376,20.057 L243.831,53.886" fill="#C6C7C6"/><path d="M243.831,53.886 L316.376,20.057 L316.515,20.354 L243.969,54.183" fill="#C7C8C6"/><path d="M243.969,54.183 L316.515,20.354 L316.654,20.652 L244.108,54.48" fill="#C9CAC8"/><path d="M244.108,54.48 L316.654,20.652 L316.792,20.949 L244.246,54.777" fill="#C9CAC9"/><path d="M244.246,54.777 L316.792,20.949 L316.931,21.246 L244.385,55.075" fill="#CACBCA"/><path d="M244.385,55.075 L316.931,21.246 L317.069,21.543 L244.524,55.372" fill="#CCCDCC"/><path d="M244.524,55.372 L317.069,21.543 L317.624,22.732 L245.078,56.561" fill="#CDCECD"/><path d="M245.078,56.561 L317.624,22.732 L318.04,23.624 L245.494,57.453" fill="#CECFCE"/><path d="M245.494,57.453 L318.04,23.624 L318.456,24.516 L245.91,58.345" fill="#CFD0CF"/><path d="M245.91,58.345 L318.456,24.516 L318.733,25.111 L246.187,58.939" fill="#D0D1D0"/><path d="M246.187,58.939 L318.733,25.111 L319.149,26.002 L246.603,59.831" fill="#D1D2D1"/><path d="M246.603,59.831 L319.149,26.002 L319.426,26.597 L246.88,60.425" fill="#D2D3D1"/><path d="M246.88,60.425 L319.426,26.597 L319.842,27.489 L247.296,61.317" fill="#D3D4D2"/><path d="M247.296,61.317 L319.842,27.489 L320.119,28.083 L247.573,61.912" fill="#D4D5D3"/><path d="M247.573,61.912 L320.119,28.083 L320.396,28.678 L247.85,62.506" fill="#D5D6D4"/><path d="M247.85,62.506 L320.396,28.678 L320.673,29.272 L248.128,63.101" fill="#D6D7D5"/><path d="M248.128,63.101 L320.673,29.272 L320.951,29.867 L248.405,63.695" fill="#D6D7D6"/><path d="M248.405,63.695 L320.951,29.867 L321.228,30.461 L248.682,64.29" fill="#D7D8D7"/><path d="M248.682,64.29 L321.228,30.461 L321.505,31.056 L248.959,64.884" fill="#D8D9D8"/><path d="M248.959,64.884 L321.505,31.056 L321.782,31.65 L249.237,65.479" fill="#D9DAD9"/><path d="M249.237,65.479 L321.782,31.65 L322.06,32.245 L249.514,66.073" fill="#DADBDA"/><path d="M249.514,66.073 L322.06,32.245 L322.337,32.839 L249.791,66.668" fill="#DBDCDB"/><path d="M249.791,66.668 L322.337,32.839 L322.614,33.434 L250.068,67.263" fill="#DCDDDC"/><path d="M250.068,67.263 L322.614,33.434 L322.891,34.029 L250.346,67.857" fill="#DDDEDD"/><path d="M250.346,67.857 L322.891,34.029 L323.169,34.623 L250.623,68.452" fill="#DEDFDE"/><path d="M250.623,68.452 L323.169,34.623 L323.446,35.218 L250.9,69.046" fill="#DFE0DF"/><path d="M250.9,69.046 L323.446,35.218 L323.723,35.812 L251.177,69.641" fill="#E0E1E0"/><path d="M251.177,69.641 L323.723,35.812 L323.862,36.109 L251.316,69.938" fill="#E1E2E1"/><path d="M251.316,69.938 L323.862,36.109 L324.139,36.704 L251.593,70.532" fill="#E3E3E2"/><path d="M251.593,70.532 L324.139,36.704 L324.416,37.298 L251.87,71.127" fill="#E4E4E3"/><path d="M251.87,71.127 L324.416,37.298 L324.832,38.19 L252.286,72.019" fill="#E5E5E4"/><path d="M252.286,72.019 L324.832,38.19 L324.971,38.487 L252.425,72.316" fill="#E4E4E3"/><path d="M252.425,72.316 L324.971,38.487 L325.109,38.785 L252.563,72.613" fill="#E1E2E1"/><path d="M252.563,72.613 L325.109,38.785 L325.248,39.082 L252.702,72.911" fill="#E0E1E0"/><path d="M252.702,72.911 L325.248,39.082 L325.386,39.379 L252.841,73.208" fill="#DFE0DF"/><path d="M252.841,73.208 L325.386,39.379 L325.525,39.677 L252.979,73.505" fill="#DEDFDE"/><path d="M252.979,73.505 L325.525,39.677 L325.664,39.974 L253.118,73.802" fill="#DDDEDD"/><path d="M253.118,73.802 L325.664,39.974 L325.802,40.271 L253.256,74.1" fill="#DBDCDB"/><path d="M253.256,74.1 L325.802,40.271 L325.941,40.568 L253.395,74.397" fill="#DADBDA"/><path d="M253.395,74.397 L325.941,40.568 L326.079,40.866 L253.534,74.694" fill="#D9DAD9"/><path d="M253.534,74.694 L326.079,40.866 L326.218,41.163 L253.672,74.991" fill="#D7D8D7"/><path d="M253.672,74.991 L326.218,41.163 L326.357,41.46 L253.811,75.289" fill="#D6D7D6"/><path d="M253.811,75.289 L326.357,41.46 L326.495,41.757 L253.95,75.586" fill="#D6D7D5"/><path d="M253.95,75.586 L326.495,41.757 L326.634,42.055 L254.088,75.883" fill="#D5D6D4"/><path d="M254.088,75.883 L326.634,42.055 L326.773,42.352 L254.227,76.18" fill="#D3D4D2"/><path d="M254.227,76.18 L326.773,42.352 L326.911,42.649 L254.365,76.478" fill="#D2D3D1"/><path d="M254.365,76.478 L326.911,42.649 L327.05,42.946 L254.504,76.775" fill="#D1D2D1"/><path d="M254.504,76.775 L327.05,42.946 L327.188,43.244 L254.643,77.072" fill="#CFD0CF"/><path d="M254.643,77.072 L327.188,43.244 L327.327,43.541 L254.781,77.37" fill="#CECFCE"/><path d="M254.781,77.37 L327.327,43.541 L327.466,43.838 L254.92,77.667" fill="#CDCECD"/><path d="M254.92,77.667 L327.466,43.838 L327.604,44.135 L255.058,77.964" fill="#CBCCCB"/><path d="M255.058,77.964 L327.604,44.135 L327.743,44.433 L255.197,78.261" fill="#CACBCA"/><path d="M255.197,78.261 L327.743,44.433 L327.881,44.73 L255.336,78.559" fill="#C9CAC9"/><path d="M255.336,78.559 L327.881,44.73 L328.02,45.027 L255.474,78.856" fill="#C8C9C7"/><path d="M255.474,78.856 L328.02,45.027 L328.159,45.325 L255.613,79.153" fill="#C7C8C6"/><path d="M255.613,79.153 L328.159,45.325 L328.297,45.622 L255.752,79.45" fill="#C6C7C6"/><path d="M255.752,79.45 L328.297,45.622 L328.436,45.919 L255.89,79.748" fill="#C4C5C4"/><path d="M255.89,79.748 L328.436,45.919 L328.575,46.216 L256.029,80.045" fill="#C3C4C3"/><path d="M256.029,80.045 L328.575,46.216 L328.713,46.514 L256.167,80.342" fill="#C2C3C2"/><path d="M256.167,80.342 L328.713,46.514 L328.852,46.811 L256.306,80.639" fill="#C0C1C0"/><path d="M256.306,80.639 L328.852,46.811 L328.99,47.108 L256.445,80.937" fill="#BFC0BF"/><path d="M256.445,80.937 L328.99,47.108 L329.129,47.405 L256.583,81.234" fill="#BEBFBD"/><path d="M256.583,81.234 L329.129,47.405 L329.268,47.703 L256.722,81.531" fill="#BDBEBC"/><path d="M256.722,81.531 L329.268,47.703 L329.406,48 L256.86,81.828" fill="#BCBDBC"/><path d="M256.86,81.828 L329.406,48 L329.545,48.297 L256.999,82.126" fill="#BABBBA"/><path d="M256.999,82.126 L329.545,48.297 L329.683,48.594 L257.138,82.423" fill="#B9BAB9"/><path d="M257.138,82.423 L329.683,48.594 L329.822,48.892 L257.276,82.72" fill="#B8B9B8"/><path d="M257.276,82.72 L329.822,48.892 L329.961,49.189 L257.415,83.018" fill="#B7B8B6"/><path d="M257.415,83.018 L329.961,49.189 L330.099,49.486 L257.554,83.315" fill="#B6B7B5"/><path d="M257.554,83.315 L330.099,49.486 L330.238,49.784 L257.692,83.612" fill="#B5B6B5"/><path d="M257.692,83.612 L330.238,49.784 L330.377,50.081 L257.831,83.909" fill="#B3B4B3"/><path d="M257.831,83.909 L330.377,50.081 L330.515,50.378 L257.969,84.207" fill="#B2B3B2"/><path d="M257.969,84.207 L330.515,50.378 L330.654,50.675 L258.108,84.504" fill="#B1B2B0"/><path d="M258.108,84.504 L330.654,50.675 L330.792,50.973 L258.247,84.801" fill="#B0B1AF"/><path d="M258.247,84.801 L330.792,50.973 L330.931,51.27 L258.385,85.098" fill="#AFB0AF"/><path d="M258.385,85.098 L330.931,51.27 L331.07,51.567 L258.524,85.396" fill="#ADAEAD"/><path d="M258.524,85.396 L331.07,51.567 L331.208,51.864 L258.662,85.693" fill="#ACADAC"/><path d="M258.662,85.693 L331.208,51.864 L331.347,52.162 L258.801,85.99" fill="#ABABAA"/><path d="M258.801,85.99 L331.347,52.162 L331.485,52.459 L258.94,86.287" fill="#AAABA9"/><path d="M258.94,86.287 L331.485,52.459 L331.624,52.756 L259.078,86.585" fill="#A9AAA9"/><path d="M259.078,86.585 L331.624,52.756 L331.763,53.053 L259.217,86.882" fill="#A7A8A7"/><path d="M259.217,86.882 L331.763,53.053 L331.901,53.351 L259.356,87.179" fill="#A6A7A6"/><path d="M259.356,87.179 L331.901,53.351 L332.04,53.648 L259.494,87.476" fill="#A5A5A4"/><path d="M259.494,87.476 L332.04,53.648 L332.179,53.945 L259.633,87.774" fill="#A4A5A3"/><path d="M259.633,87.774 L332.179,53.945 L332.317,54.242 L259.771,88.071" fill="#A3A4A3"/><path d="M259.771,88.071 L332.317,54.242 L332.456,54.54 L259.91,88.368" fill="#A1A2A1"/><path d="M259.91,88.368 L332.456,54.54 L332.594,54.837 L260.049,88.666" fill="#A0A1A0"/><path d="M260.049,88.666 L332.594,54.837 L332.733,55.134 L260.187,88.963" fill="#9FA09E"/><path d="M260.187,88.963 L332.733,55.134 L332.872,55.432 L260.326,89.26" fill="#9E9F9E"/><path d="M260.326,89.26 L332.872,55.432 L333.01,55.729 L260.464,89.557" fill="#9D9E9D"/><path d="M260.464,89.557 L333.01,55.729 L333.149,56.026 L260.603,89.855" fill="#9C9C9B"/><path d="M260.603,89.855 L333.149,56.026 L333.287,56.323 L260.742,90.152" fill="#9B9C9A"/><path d="M260.742,90.152 L333.287,56.323 L333.426,56.621 L260.88,90.449" fill="#999A99"/><path d="M260.88,90.449 L333.426,56.621 L333.565,56.918 L261.019,90.746" fill="#989998"/><path d="M261.019,90.746 L333.565,56.918 L333.703,57.215 L261.158,91.044" fill="#979897"/><path d="M261.158,91.044 L333.703,57.215 L333.842,57.512 L261.296,91.341" fill="#969796"/><path d="M261.296,91.341 L333.842,57.512 L333.981,57.81 L261.435,91.638" fill="#959695"/><path d="M261.435,91.638 L333.981,57.81 L334.119,58.107 L261.573,91.935" fill="#939493"/><path d="M261.573,91.935 L334.119,58.107 L334.258,58.404 L261.712,92.233" fill="#939492"/><path d="M261.712,92.233 L334.258,58.404 L334.396,58.701 L261.851,92.53" fill="#929392"/><path d="M261.851,92.53 L334.396,58.701 L334.535,58.999 L261.989,92.827" fill="#909190"/><path d="M261.989,92.827 L334.535,58.999 L334.674,59.296 L262.128,93.125" fill="#8F908F"/><path d="M262.128,93.125 L334.674,59.296 L334.812,59.593 L262.266,93.422" fill="#8E8F8E"/><path d="M262.266,93.422 L334.812,59.593 L334.951,59.89 L262.405,93.719" fill="#8D8E8D"/><path d="M262.405,93.719 L334.951,59.89 L335.089,60.188 L262.544,94.016" fill="#8B8C8B"/><path d="M262.544,94.016 L335.089,60.188 L335.228,60.485 L262.682,94.314" fill="#8A8B8A"/><path d="M262.682,94.314 L335.228,60.485 L335.367,60.782 L262.821,94.611" fill="#898A89"/><path d="M262.821,94.611 L335.367,60.782 L335.505,61.08 L262.96,94.908" fill="#888887"/><path d="M262.96,94.908 L335.505,61.08 L335.644,61.377 L263.098,95.205" fill="#878886"/><path d="M263.098,95.205 L335.644,61.377 L335.783,61.674 L263.237,95.503" fill="#858685"/><path d="M263.237,95.503 L335.783,61.674 L335.921,61.971 L263.375,95.8" fill="#848584"/><path d="M263.375,95.8 L335.921,61.971 L336.06,62.269 L263.514,96.097" fill="#838483"/><path d="M263.514,96.097 L336.06,62.269 L336.198,62.566 L263.653,96.394" fill="#828382"/><path d="M263.653,96.394 L336.198,62.566 L336.337,62.863 L263.791,96.692" fill="#818281"/><path d="M263.791,96.692 L336.337,62.863 L336.476,63.16 L263.93,96.989" fill="#808180"/><path d="M263.93,96.989 L336.476,63.16 L336.614,63.458 L264.068,97.286" fill="#7F807F"/><path d="M264.068,97.286 L336.614,63.458 L336.753,63.755 L264.207,97.583" fill="#7E7F7D"/><path d="M264.207,97.583 L336.753,63.755 L336.892,64.052 L264.346,97.881" fill="#7D7E7D"/><path d="M264.346,97.881 L336.892,64.052 L337.03,64.349 L264.484,98.178" fill="#7B7C7B"/><path d="M264.484,98.178 L337.03,64.349 L337.169,64.647 L264.623,98.475" fill="#7B7C7A"/><path d="M264.623,98.475 L337.169,64.647 L337.307,64.944 L264.762,98.773" fill="#7A7B7A"/><path d="M264.762,98.773 L337.307,64.944 L337.446,65.241 L264.9,99.07" fill="#787978"/><path d="M264.9,99.07 L337.446,65.241 L337.585,65.539 L265.039,99.367" fill="#787977"/><path d="M265.039,99.367 L337.585,65.539 L340.357,71.484 L267.811,105.312" fill="#767776"/></g><path d="M295.954,83.181 L296.858,84.07 L301.493,84.07 L300.588,83.181 L295.954,83.181" fill="#9E9F9E"/><path d="M304.633,83.181 L305.536,84.07 L310.172,84.07 L309.268,83.181 L304.633,83.181" fill="#9E9F9E"/><g clip-path="url(#Clip_2)"><path d="M289.227,44.936 C289.655,44.315 291.917,42.158 291.917,42.158 L292.682,43.164 L290.264,45.686 C296.422,53.88 301.487,66.188 301.499,84.068 L301.493,84.07 L300.588,83.181 C300.502,57.61 289.227,44.936 289.227,44.936" fill="#777776"/><path d="M295.454,39.152 C296.778,38.15 298.045,37.314 299.206,36.623 C304.182,33.661 309.342,31.622 314.989,30.415 L315.895,31.308 C315.895,31.308 305.395,33.36 296.77,39.746 L296.584,39.883 C304.024,49.28 310.157,63.487 310.174,84.07 L310.172,84.07 L309.268,83.181 C309.268,83.181 310.327,57.581 295.459,39.159" fill="#777776"/><path d="M315.895,22.937 L315.895,18.231 L314.991,17.342 L314.991,22.05 L315.895,22.937" fill="#9E9F9E"/><path d="M315.895,22.937 C300.336,25.406 290.735,33.893 290.735,33.893 L289.831,33.005 C302.661,23.386 314.991,22.05 314.991,22.05" fill="#777776"/></g><path d="M314.991,25.685 L314.991,30.415 L315.887,31.314 L315.887,26.574 L314.991,25.685" fill="#9E9F9E"/><path d="M287.014,49.792 C287.444,50.45 277.713,58.81 277.467,84.068 L276.563,83.181 C276.563,83.181 275.02,65.018 286.258,48.69" fill="#777776"/><path d="M271.926,83.181 L272.831,84.07 L277.467,84.068 L276.563,83.181 L271.926,83.181" fill="#9E9F9E"/><path d="M263.247,83.181 L264.153,84.07 L268.788,84.07 L267.883,83.181 L263.247,83.181" fill="#9E9F9E"/><path d="M280.598,42.158 L281.495,43.033 C281.495,43.033 268.461,55.145 268.788,84.07 L267.883,83.181 C267.883,83.181 265.715,60.386 280.598,42.158" fill="#777776"/><path d="M286.258,36.021 C286.258,36.021 286.614,36.331 287.116,36.833 L284.54,39.513 L283.624,38.633 L286.258,36.021" fill="#777776"/><path d="M257.524,22.05 L258.571,23.091 C258.571,23.091 269.899,24.841 282.12,33.552 L282.686,33.005 C282.686,33.005 272.702,24.728 257.524,22.05" fill="#777776"/><path d="M276.547,39.817 L277.049,39.152 C277.049,39.152 269.159,32.841 257.524,30.419 L258.547,31.529 C258.547,31.529 266.975,32.98 276.547,39.817" fill="#777776"/><path d="M279.424,11.582 C279.424,8.051 282.301,5.174 285.834,5.174 C289.37,5.174 292.245,8.051 292.245,11.582 C292.245,15.118 289.37,17.993 285.834,17.993 C282.301,17.993 279.424,15.118 279.424,11.582 z M275.02,11.582 C275.02,17.547 279.874,22.4 285.834,22.4 C291.797,22.4 296.649,17.547 296.649,11.582 C296.649,5.62 291.797,0.77 285.834,0.77 C279.874,0.77 275.02,5.62 275.02,11.582" fill="#D8232A"/><path d="M281.288,16.338 L281.25,16.305 L281.254,16.297 L281.213,16.227 L281.178,16.239 C279.989,15.045 279.249,13.401 279.249,11.582 C279.249,7.954 282.202,4.997 285.834,4.997 C288.331,4.997 290.508,6.393 291.625,8.448 L291.608,8.473 L291.653,8.52 L291.659,8.516 L291.68,8.565 L291.522,8.639 L291.469,8.532 C290.381,6.536 288.264,5.174 285.834,5.174 C282.301,5.174 279.424,8.051 279.424,11.582 C279.424,13.35 280.143,14.954 281.305,16.114 L281.407,16.207 L281.288,16.338 z M295.356,6.463 L295.797,7.379 C296.344,8.67 296.649,10.094 296.649,11.582 C296.649,17.547 291.797,22.4 285.834,22.4 C283.225,22.4 280.831,21.47 278.959,19.927 L278.229,19.261 L278.37,19.154 L278.346,19.128 L279.073,19.792 L279.784,20.33 C281.504,21.523 283.588,22.222 285.834,22.222 C291.7,22.222 296.473,17.45 296.473,11.582 C296.473,10.483 296.305,9.422 295.995,8.424 L295.635,7.45 L295.196,6.538 L295.215,6.567 L295.356,6.463" fill="#34312E"/><path d="M17.298,62.976 L20.69,62.976 L20.649,66.987 L20.731,67.071 C21.435,65.21 23.462,62.395 26.44,62.395 C27.144,62.395 27.764,62.52 28.219,62.686 L27.226,65.829 C26.895,65.747 26.399,65.622 25.944,65.622 C24.579,65.622 22.386,66.739 20.607,70.05 L20.442,83.576 L17.133,83.576 L17.298,62.976" fill="#777776"/><path d="M41.456,72.821 C35.706,73.565 32.727,74.642 32.727,78.157 C32.727,80.474 34.134,81.673 36.409,81.673 C38.436,81.673 40.008,80.226 41.29,78.653 L41.456,72.821 z M48.488,82.665 C47.33,83.576 46.088,84.154 44.641,84.154 C42.779,84.154 41.745,82.46 41.58,80.722 C40.008,82.665 38.022,84.154 35.374,84.154 C31.734,84.154 29.418,81.673 29.418,78.198 C29.418,72.366 36.947,71.001 41.456,70.835 C41.497,69.966 41.538,69.097 41.538,68.229 C41.538,66.45 40.587,65.126 38.395,65.126 C36.781,65.126 35.457,65.706 32.437,67.981 L31.072,65.829 C35.209,63.142 36.533,62.395 39.511,62.395 C42.945,62.395 44.682,64.423 44.682,67.608 C44.682,71.497 44.351,75.097 44.351,78.735 C44.351,80.226 44.558,81.673 45.84,81.673 C46.543,81.673 47.04,81.343 47.578,80.97 L48.488,82.665" fill="#777776"/><path d="M51.549,62.976 L54.858,62.976 L54.734,66.284 L54.816,66.284 C56.554,63.802 59.367,62.395 61.808,62.395 C66.564,62.395 68.095,64.837 68.095,68.643 C68.095,70.214 68.054,71.786 68.054,73.358 L67.971,83.576 L64.662,83.576 L64.745,74.31 C64.745,72.489 64.786,70.669 64.786,68.643 C64.786,66.409 63.297,65.374 61.021,65.374 C58.871,65.374 56.968,66.616 54.858,69.181 L54.692,83.576 L51.383,83.576 L51.549,62.976" fill="#777776"/><path d="M74.01,79.936 C75.168,80.722 76.781,81.673 78.56,81.673 C80.38,81.673 82.573,80.681 82.573,78.364 C82.573,73.233 73.017,75.468 73.017,68.56 C73.017,64.671 76.202,62.395 79.967,62.395 C82.283,62.395 84.434,63.099 85.965,64.134 L84.434,66.243 C83.234,65.581 81.952,64.878 80.504,64.878 C78.105,64.878 76.326,65.87 76.326,68.311 C76.326,72.737 85.882,70.917 85.882,77.909 C85.882,81.839 82.449,84.154 79.057,84.154 C76.657,84.154 74.465,83.327 72.603,82.128 L74.01,79.936" fill="#777776"/><path d="M93.369,78.116 C94.816,80.349 96.554,81.425 98.54,81.425 C102.18,81.425 104.703,77.37 104.703,73.276 C104.703,67.69 102.097,65.126 99.243,65.126 C96.595,65.126 94.444,67.194 93.452,68.933 L93.369,78.116 z M90.184,62.976 L93.493,62.976 L93.493,65.747 L93.576,65.747 C94.651,63.968 97.092,62.395 99.987,62.395 C103.503,62.395 108.261,65.044 108.261,73.151 C108.261,78.694 104.538,84.154 99.243,84.154 C96.513,84.154 94.444,82.915 93.41,81.466 L93.327,81.466 L93.245,94 L89.935,94 L90.184,62.976" fill="#777776"/><path d="M121.042,81.673 C124.145,81.673 127.496,78.983 127.496,73.276 C127.496,67.567 124.724,64.878 121.374,64.878 C118.271,64.878 114.92,67.567 114.92,73.276 C114.92,78.983 117.692,81.673 121.042,81.673 z M121.415,62.395 C127.454,62.395 131.053,66.532 131.053,73.276 C131.053,78.612 127.537,84.154 121.001,84.154 C114.961,84.154 111.363,80.06 111.363,73.276 C111.363,67.938 114.879,62.395 121.415,62.395" fill="#777776"/><path d="M134.569,62.976 L137.961,62.976 L137.92,66.987 L138.002,67.071 C138.706,65.21 140.733,62.395 143.711,62.395 C144.415,62.395 145.035,62.52 145.49,62.686 L144.497,65.829 C144.166,65.747 143.67,65.622 143.215,65.622 C141.85,65.622 139.657,66.739 137.878,70.05 L137.713,83.576 L134.404,83.576 L134.569,62.976" fill="#777776"/><path d="M150.743,62.976 L150.825,55.364 L154.135,55.364 L154.052,62.976 L159.678,62.976 L159.678,65.458 L154.01,65.458 L153.928,73.895 C153.886,76.212 153.886,77.743 153.886,78.778 C153.886,80.474 154.383,81.425 155.789,81.425 C156.906,81.425 158.313,80.722 159.099,80.226 L160.174,82.376 C158.809,83.286 156.823,84.154 155.003,84.154 C151.818,84.154 150.577,82.169 150.577,78.901 C150.577,77.536 150.577,75.841 150.618,72.985 L150.701,65.458 L147.185,65.458 L147.185,62.976 L150.743,62.976" fill="#777776"/><path d="M159.612,62.976 L165.18,62.976 C165.18,61.776 165.221,60.37 165.344,59.005 C165.799,53.958 169.276,52.22 173.991,52.22 L173.991,54.95 L172.543,54.95 C169.772,54.95 168.571,57.185 168.489,59.667 L168.366,62.976 L173.991,62.976 L173.991,65.458 L168.489,65.458 L168.323,83.576 L165.014,83.576 L165.18,65.458 L159.612,65.458 L159.612,62.976" fill="#D8232A"/><path d="M185.159,81.673 C188.26,81.673 191.612,78.983 191.612,73.276 C191.612,67.567 188.84,64.878 185.489,64.878 C182.387,64.878 179.038,67.567 179.038,73.276 C179.038,78.983 181.807,81.673 185.159,81.673 z M185.53,62.395 C191.571,62.395 195.168,66.532 195.168,73.276 C195.168,78.612 191.653,84.154 185.118,84.154 C179.079,84.154 175.479,80.06 175.479,73.276 C175.479,67.938 178.995,62.395 185.53,62.395" fill="#D8232A"/><path d="M212.708,67.526 C211.426,65.954 209.936,65.126 208.241,65.126 C205.18,65.126 202.036,68.104 202.036,73.895 C202.036,78.528 205.014,81.425 208.2,81.425 C209.977,81.425 211.881,80.101 212.874,78.778 L214.569,80.722 C212.584,83.079 210.432,84.154 207.62,84.154 C202.491,84.154 198.479,80.101 198.479,73.276 C198.479,67.608 202.491,62.395 208.116,62.395 C210.805,62.395 213.247,63.761 214.86,65.829 L212.708,67.526" fill="#D8232A"/><path d="M218.706,62.976 L222.014,62.976 L221.932,72.241 C221.932,74.061 221.889,75.882 221.889,77.909 C221.889,80.142 223.379,81.177 225.655,81.177 C227.805,81.177 229.708,79.936 231.819,77.37 L231.983,62.976 L235.293,62.976 L235.127,83.576 L231.819,83.576 L231.942,80.267 L231.86,80.267 C230.122,82.749 227.309,84.154 224.868,84.154 C220.112,84.154 218.581,81.714 218.581,77.909 C218.581,76.337 218.622,74.765 218.622,73.192 L218.706,62.976" fill="#D8232A"/><g clip-path="url(#Clip_3)"><path d="M240.545,79.936 C241.704,80.722 243.317,81.673 245.096,81.673 C246.917,81.673 249.108,80.681 249.108,78.364 C249.108,73.233 239.553,75.468 239.553,68.56 C239.553,64.671 242.739,62.395 246.502,62.395 C248.819,62.395 250.971,63.099 252.5,64.134 L250.971,66.243 C249.77,65.581 248.489,64.878 247.04,64.878 C244.641,64.878 242.862,65.87 242.862,68.311 C242.862,72.737 252.418,70.917 252.418,77.909 C252.418,81.839 248.985,84.154 245.592,84.154 C243.194,84.154 241,83.327 239.139,82.128 L240.545,79.936" fill="#D8232A"/><path d="M4.558,62.976 L4.64,55.364 L7.95,55.364 L7.867,62.976 L13.493,62.976 L13.493,65.458 L7.825,65.458 L7.743,73.897 C7.701,76.214 7.701,77.743 7.701,78.778 C7.701,80.474 8.198,81.425 9.604,81.425 C10.721,81.425 12.127,80.722 12.914,80.226 L13.989,82.376 C12.624,83.286 10.638,84.154 8.818,84.154 C5.633,84.154 4.392,82.171 4.392,78.901 C4.392,77.536 4.392,75.841 4.433,72.987 L4.516,65.458 L1,65.458 L1,62.976 L4.558,62.976" fill="#777776"/></g></g></svg>